<svg xmlns="http://www.w3.org/2000/svg" viewBox="0 0 512 512" width="512" height="512">
  <defs>
    <linearGradient id="bg" x1="0%" y1="0%" x2="100%" y2="100%">
      <stop offset="0%" style="stop-color:#004D40;stop-opacity:1" />
      <stop offset="100%" style="stop-color:#002b24;stop-opacity:1" />
    </linearGradient>
    <linearGradient id="rose" x1="0%" y1="0%" x2="100%" y2="100%">
      <stop offset="0%" style="stop-color:#f43f5e;stop-opacity:1" />
      <stop offset="100%" style="stop-color:#be123c;stop-opacity:1" />
    </linearGradient>
  </defs>
  
  <rect width="512" height="512" rx="140" fill="url(#bg)" />
  
  <g transform="translate(76, 76) scale(15)" stroke="#ffffff" stroke-width="1.2" stroke-linecap="round" stroke-linejoin="round" fill="none">
    <!-- Stem -->
    <path d="M12 22V14" stroke="#a7f3d0" stroke-width="1.5"/>
    
    <!-- Leaves -->
    <path d="M12 18c-2.5-1.5-4-4-4-4s1.5 1 4 2.5" fill="#059669" stroke="#34d399"/>
    <path d="M12 16c2.5-1.5 4-4 4-4s-1.5 1-4 2.5" fill="#059669" stroke="#34d399"/>

    <!-- Rose Head -->
    <path d="M12 14c-3 0-5.5-2-5.5-5 0-2 1.5-3.5 3-4.5 1.5-1 3.5-1.5 5-1 1.5.5 2.5 2 3 3.5.5 1.5.5 3.5-1.5 5C14.5 13 13.5 14 12 14Z" fill="url(#rose)" stroke="#ffe4e6"/>
    
    <!-- Inner petals -->
    <path d="M9 9c0-1.5 1.5-2.5 3-2.5s3 1 3 2.5-1.5 2.5-3 2.5S9 10.5 9 9Z" fill="#9f1239" stroke="#ffe4e6"/>
    <path d="M10.5 8.5c.5-.5 2.5-.5 3 0" stroke="#ffe4e6"/>
  </g>
</svg>
